<svg width="792" height="792" viewBox="0 0 792 792" fill="none" xmlns="http://www.w3.org/2000/svg">
<path fill-rule="evenodd" clip-rule="evenodd" d="M396.04 264.01C323.149 264.01 264.059 323.1 264.059 395.991C264.059 468.882 323.149 527.972 396.04 527.972C433.717 527.972 467.529 512.357 491.743 486.878C491.743 600.564 491.743 686.35 491.743 780.268C461.087 787.888 429.028 791.936 396.04 791.936C177.366 791.936 0.0947266 614.664 0.0947266 395.991C0.0947266 177.317 177.366 0.0449219 396.04 0.0449219C429.028 0.0449219 461.087 4.09359 491.743 11.712C491.743 105.631 491.743 198.018 491.743 305.104C467.531 279.625 433.717 264.01 396.04 264.01Z" fill="#4063FF"/>
<path fill-rule="evenodd" clip-rule="evenodd" d="M396.054 263.821C323.163 263.821 264.07 322.91 264.07 395.802C264.07 468.693 323.163 527.783 396.054 527.783C468.945 527.783 528.035 468.693 528.035 395.802C528.035 322.91 468.945 263.821 396.054 263.821ZM211.278 395.802C211.278 293.754 294.004 211.027 396.054 211.027C498.102 211.027 580.827 293.754 580.827 395.802C580.827 497.849 498.102 580.577 396.054 580.577C294.004 580.577 211.278 497.849 211.278 395.802Z" fill="#4063FF"/>
<path fill-rule="evenodd" clip-rule="evenodd" d="M396.054 52.8376C206.536 52.8376 52.9007 206.472 52.9007 395.991C52.9007 585.508 206.536 739.144 396.054 739.144C585.571 739.144 739.208 585.508 739.208 395.991C739.208 206.472 585.571 52.8376 396.054 52.8376ZM0.108032 395.991C0.108032 177.317 177.38 0.0449219 396.054 0.0449219C614.727 0.0449219 792 177.317 792 395.991C792 614.664 614.727 791.936 396.054 791.936C177.38 791.936 0.108032 614.664 0.108032 395.991Z" fill="#4063FF"/>
<path fill-rule="evenodd" clip-rule="evenodd" d="M396.165 158.226C264.961 158.226 158.597 264.588 158.597 395.792C158.597 526.999 264.961 633.36 396.165 633.36C527.369 633.36 633.732 526.999 633.732 395.792C633.732 264.588 527.369 158.226 396.165 158.226ZM105.805 395.792C105.805 235.431 235.803 105.433 396.165 105.433C556.528 105.433 686.524 235.431 686.524 395.792C686.524 556.155 556.528 686.154 396.165 686.154C235.803 686.154 105.805 556.155 105.805 395.792Z" fill="#4063FF"/>
</svg>
